<svg width="1827" height="254" viewBox="0 0 1827 254" fill="none" xmlns="http://www.w3.org/2000/svg">
<rect x="1826.21" y="251.722" width="1826" height="200" transform="rotate(179.955 1826.21 251.722)" fill="#BD7312"/>
<circle cx="1776.04" cy="50.0396" r="50" transform="rotate(179.955 1776.04 50.0396)" fill="#BD7312"/>
<circle cx="1074.04" cy="50.5945" r="50" transform="rotate(179.955 1074.04 50.5945)" fill="#BD7312"/>
<circle cx="370.04" cy="51.1511" r="50" transform="rotate(179.955 370.04 51.1511)" fill="#BD7312"/>
<circle cx="1542.04" cy="50.2246" r="50" transform="rotate(179.955 1542.04 50.2246)" fill="#BD7312"/>
<circle cx="840.04" cy="50.7795" r="50" transform="rotate(179.955 840.04 50.7795)" fill="#BD7312"/>
<circle cx="126.04" cy="51.344" r="50" transform="rotate(179.955 126.04 51.344)" fill="#BD7312"/>
<circle cx="1308.04" cy="50.4095" r="50" transform="rotate(179.955 1308.04 50.4095)" fill="#BD7312"/>
<circle cx="606.04" cy="50.9645" r="50" transform="rotate(179.955 606.04 50.9645)" fill="#BD7312"/>
<circle cx="1696.04" cy="50.1028" r="50" transform="rotate(179.955 1696.04 50.1028)" fill="#BD7312"/>
<circle cx="994.04" cy="50.6577" r="50" transform="rotate(179.955 994.04 50.6577)" fill="#BD7312"/>
<circle cx="286.04" cy="51.2175" r="50" transform="rotate(179.955 286.04 51.2175)" fill="#BD7312"/>
<circle cx="1462.04" cy="50.2878" r="50" transform="rotate(179.955 1462.04 50.2878)" fill="#BD7312"/>
<circle cx="760.04" cy="50.8427" r="50" transform="rotate(179.955 760.04 50.8427)" fill="#BD7312"/>
<circle cx="50.0396" cy="51.4041" r="50" transform="rotate(179.955 50.0396 51.4041)" fill="#BD7312"/>
<circle cx="1228.04" cy="50.4728" r="50" transform="rotate(179.955 1228.04 50.4728)" fill="#BD7312"/>
<circle cx="526.04" cy="51.0277" r="50" transform="rotate(179.955 526.04 51.0277)" fill="#BD7312"/>
<circle cx="1616.04" cy="50.166" r="50" transform="rotate(179.955 1616.04 50.166)" fill="#BD7312"/>
<circle cx="914.04" cy="50.721" r="50" transform="rotate(179.955 914.04 50.721)" fill="#BD7312"/>
<circle cx="210.04" cy="51.2775" r="50" transform="rotate(179.955 210.04 51.2775)" fill="#BD7312"/>
<circle cx="1382.04" cy="50.351" r="50" transform="rotate(179.955 1382.04 50.351)" fill="#BD7312"/>
<circle cx="680.04" cy="50.906" r="50" transform="rotate(179.955 680.04 50.906)" fill="#BD7312"/>
<circle cx="1148.04" cy="50.536" r="50" transform="rotate(179.955 1148.04 50.536)" fill="#BD7312"/>
<circle cx="446.04" cy="51.091" r="50" transform="rotate(179.955 446.04 51.091)" fill="#BD7312"/>
</svg>
