<svg width="474" height="80" viewBox="0 0 474 80" fill="none" xmlns="http://www.w3.org/2000/svg">
<path d="M30.86 39.665C30.02 38.165 29.6 36.95 29.6 36.02C29.6 35.06 29.855 34.445 30.365 34.175C32.075 33.425 34.415 33.05 37.385 33.05C40.385 33.05 42.5 33.755 43.73 35.165C44.96 36.545 45.575 38.6 45.575 41.33V48.44H47.105C47.615 48.44 48.005 48.74 48.275 49.34C48.575 49.94 48.725 50.765 48.725 51.815C48.725 52.865 48.455 53.9 47.915 54.92C47.405 55.94 46.7 56.45 45.8 56.45C44.18 56.45 42.875 56.015 41.885 55.145C41.435 54.785 41.09 54.35 40.85 53.84C39.47 55.58 37.325 56.45 34.415 56.45C32.225 56.45 30.38 55.67 28.88 54.11C27.38 52.55 26.63 50.705 26.63 48.575C26.63 43.685 29.555 41.24 35.405 41.24H37.88V40.79C37.88 40.01 37.745 39.515 37.475 39.305C37.235 39.065 36.65 38.945 35.72 38.945C34.58 38.945 32.96 39.185 30.86 39.665ZM34.46 47.945C34.46 48.605 34.64 49.115 35 49.475C35.36 49.805 35.81 49.97 36.35 49.97C36.92 49.97 37.43 49.745 37.88 49.295V45.83H36.62C35.18 45.83 34.46 46.535 34.46 47.945ZM62.6571 24.77C62.6571 24.32 63.8421 24.095 66.2121 24.095C67.0221 24.095 67.9521 24.155 69.0021 24.275C70.0821 24.365 70.6221 24.5 70.6221 24.68V48.395H72.1971C72.9471 48.395 73.4421 49.07 73.6821 50.42C73.7421 50.81 73.7721 51.35 73.7721 52.04C73.7721 52.7 73.5621 53.51 73.1421 54.47C72.5421 55.79 71.5821 56.45 70.2621 56.45C69.2721 56.45 68.3871 56.255 67.6071 55.865C66.8571 55.475 66.3471 55.07 66.0771 54.65L65.6721 54.065C64.0221 55.655 61.9521 56.45 59.4621 56.45C56.9721 56.45 54.8421 55.415 53.0721 53.345C51.3021 51.275 50.4171 48.395 50.4171 44.705C50.4171 40.985 51.3471 38.12 53.2071 36.11C55.0671 34.07 57.3921 33.05 60.1821 33.05C60.9921 33.05 61.8171 33.14 62.6571 33.32V24.77ZM61.1721 40.25C59.4921 40.25 58.6521 41.765 58.6521 44.795C58.6521 46.325 58.8921 47.435 59.3721 48.125C59.8521 48.785 60.3771 49.115 60.9471 49.115C61.5471 49.115 62.1171 48.86 62.6571 48.35V40.7C62.1471 40.4 61.6521 40.25 61.1721 40.25ZM78.6514 53.345C76.7914 51.275 75.8614 48.41 75.8614 44.75C75.8614 41.09 76.7914 38.225 78.6514 36.155C80.5414 34.085 83.0764 33.05 86.2564 33.05C89.4364 33.05 91.9564 34.085 93.8164 36.155C95.6764 38.225 96.6064 41.09 96.6064 44.75C96.6064 48.41 95.6764 51.275 93.8164 53.345C91.9564 55.415 89.4364 56.45 86.2564 56.45C83.0764 56.45 80.5414 55.415 78.6514 53.345ZM86.2564 40.565C84.5764 40.565 83.7364 41.945 83.7364 44.705C83.7364 47.465 84.5764 48.845 86.2564 48.845C87.9664 48.845 88.8214 47.465 88.8214 44.705C88.8214 41.945 87.9664 40.565 86.2564 40.565ZM110.138 55.73C110.138 56.09 108.878 56.27 106.358 56.27C103.358 56.15 101.858 55.955 101.858 55.685V39.755H99.5627C98.9627 39.755 98.6627 38.72 98.6627 36.65C98.6627 36.11 98.7077 35.45 98.7977 34.67C98.9177 33.89 99.1427 33.5 99.4727 33.5H101.858V29.54C101.858 28.94 103.118 28.64 105.638 28.64C108.188 28.64 109.463 28.88 109.463 29.36V32.24L109.508 33.5H113.333C113.843 33.5 114.098 34.55 114.098 36.65C114.098 38.75 113.843 39.8 113.333 39.8H110.138V55.73ZM133.365 54.785C131.475 55.895 129.045 56.45 126.075 56.45C123.105 56.45 120.6 55.445 118.56 53.435C116.52 51.395 115.5 48.59 115.5 45.02C115.5 41.42 116.475 38.525 118.425 36.335C120.405 34.145 122.895 33.05 125.895 33.05C128.895 33.05 131.205 33.815 132.825 35.345C134.475 36.875 135.3 38.735 135.3 40.925C135.3 45.785 132.51 48.215 126.93 48.215H123.825C123.825 49.115 124.065 49.745 124.545 50.105C125.055 50.435 125.79 50.6 126.75 50.6C128.85 50.6 130.845 50.12 132.735 49.16C132.765 49.13 132.9 49.34 133.14 49.79C133.86 51.08 134.22 52.175 134.22 53.075C134.22 53.945 133.935 54.515 133.365 54.785ZM127.74 41.78C127.74 40.52 127.125 39.89 125.895 39.89C125.325 39.89 124.83 40.07 124.41 40.43C124.02 40.76 123.825 41.255 123.825 41.915V43.31H126.255C127.245 43.31 127.74 42.8 127.74 41.78Z" fill="#BD7312"/>
<path d="M177.8 33.77C177.8 33.44 179.09 33.275 181.67 33.275C184.25 33.275 185.54 33.44 185.54 33.77V46.91C185.54 48.41 186.02 49.16 186.98 49.16C187.7 49.16 188.51 48.845 189.41 48.215V33.77C189.41 33.47 190.685 33.32 193.235 33.32C195.785 33.32 197.06 33.47 197.06 33.77V48.53H198.23C199.25 48.53 199.76 49.505 199.76 51.455C199.76 52.445 199.55 53.45 199.13 54.47C198.53 55.79 197.72 56.45 196.7 56.45C194.69 56.45 193.205 55.625 192.245 53.975L192.2 54.02C190.37 55.64 188.405 56.45 186.305 56.45C183.395 56.45 181.25 55.73 179.87 54.29C178.49 52.82 177.8 50.405 177.8 47.045V33.77ZM222.888 55.775C222.888 55.985 221.598 56.09 219.018 56.09C216.468 56.09 215.193 55.955 215.193 55.685V42.59C215.193 41.09 214.698 40.34 213.708 40.34C213.198 40.34 212.523 40.67 211.683 41.33V55.73C211.683 56.03 210.393 56.18 207.813 56.18C205.263 56.18 203.988 56.015 203.988 55.685V40.97H202.863C201.873 40.97 201.378 39.935 201.378 37.865C201.378 36.935 201.558 35.99 201.918 35.03C202.398 33.71 203.178 33.05 204.258 33.05C205.338 33.05 206.373 33.335 207.363 33.905C208.383 34.475 208.998 35.015 209.208 35.525C211.068 33.875 213.123 33.05 215.373 33.05C217.653 33.05 219.483 33.755 220.863 35.165C222.483 33.755 224.433 33.05 226.713 33.05C231.663 33.05 234.138 36.065 234.138 42.095V55.775C234.138 55.985 232.848 56.09 230.268 56.09C227.718 56.09 226.443 55.955 226.443 55.685V42.59C226.443 41.09 225.948 40.34 224.958 40.34C224.418 40.34 223.728 40.67 222.888 41.33V55.775Z" fill="#BD7312"/>
<path d="M279.405 44.84C279.405 47.78 280.515 49.25 282.735 49.25C284.175 49.25 285.375 48.965 286.335 48.395C286.785 48.395 287.145 49.175 287.415 50.735C287.715 52.265 287.865 53.315 287.865 53.885C287.865 54.425 287.79 54.785 287.64 54.965C286.05 55.955 283.875 56.45 281.115 56.45C278.355 56.45 276 55.43 274.05 53.39C272.13 51.32 271.17 48.515 271.17 44.975C271.17 41.405 272.115 38.525 274.005 36.335C275.925 34.145 278.46 33.05 281.61 33.05C284.79 33.05 286.995 33.815 288.225 35.345C288.495 35.675 288.63 36.17 288.63 36.83C288.63 37.46 288.51 38.24 288.27 39.17C287.73 41.09 287.025 42.2 286.155 42.5C286.035 42.53 285.855 42.545 285.615 42.545C285.405 42.545 285.135 42.365 284.805 42.005C283.635 40.835 282.69 40.25 281.97 40.25C281.28 40.25 280.68 40.61 280.17 41.33C279.66 42.05 279.405 43.22 279.405 44.84ZM293.932 39.665C293.092 38.165 292.672 36.95 292.672 36.02C292.672 35.06 292.927 34.445 293.437 34.175C295.147 33.425 297.487 33.05 300.457 33.05C303.457 33.05 305.572 33.755 306.802 35.165C308.032 36.545 308.647 38.6 308.647 41.33V48.44H310.177C310.687 48.44 311.077 48.74 311.347 49.34C311.647 49.94 311.797 50.765 311.797 51.815C311.797 52.865 311.527 53.9 310.987 54.92C310.477 55.94 309.772 56.45 308.872 56.45C307.252 56.45 305.947 56.015 304.957 55.145C304.507 54.785 304.162 54.35 303.922 53.84C302.542 55.58 300.397 56.45 297.487 56.45C295.297 56.45 293.452 55.67 291.952 54.11C290.452 52.55 289.702 50.705 289.702 48.575C289.702 43.685 292.627 41.24 298.477 41.24H300.952V40.79C300.952 40.01 300.817 39.515 300.547 39.305C300.307 39.065 299.722 38.945 298.792 38.945C297.652 38.945 296.032 39.185 293.932 39.665ZM297.532 47.945C297.532 48.605 297.712 49.115 298.072 49.475C298.432 49.805 298.882 49.97 299.422 49.97C299.992 49.97 300.502 49.745 300.952 49.295V45.83H299.692C298.252 45.83 297.532 46.535 297.532 47.945ZM324.199 55.955C324.199 56.165 322.834 56.27 320.104 56.27C317.374 56.21 316.009 56.09 316.009 55.91V40.97H314.794C314.314 40.97 313.924 40.685 313.624 40.115C313.354 39.515 313.219 38.78 313.219 37.91C313.219 34.67 314.179 33.05 316.099 33.05C317.449 33.05 318.574 33.47 319.474 34.31C320.374 35.12 320.824 36.05 320.824 37.1C321.454 35.87 322.294 34.895 323.344 34.175C324.424 33.425 325.519 33.05 326.629 33.05C328.369 33.05 329.419 33.5 329.779 34.4C329.869 34.64 329.914 35 329.914 35.48C329.914 35.93 329.764 36.755 329.464 37.955C329.194 39.155 328.909 40.025 328.609 40.565C328.309 41.105 328.129 41.375 328.069 41.375C328.009 41.375 327.724 41.27 327.214 41.06C326.734 40.82 326.299 40.7 325.909 40.7C324.769 40.7 324.199 41.6 324.199 43.4V55.955ZM335.021 39.665C334.181 38.165 333.761 36.95 333.761 36.02C333.761 35.06 334.016 34.445 334.526 34.175C336.236 33.425 338.576 33.05 341.546 33.05C344.546 33.05 346.661 33.755 347.891 35.165C349.121 36.545 349.736 38.6 349.736 41.33V48.44H351.266C351.776 48.44 352.166 48.74 352.436 49.34C352.736 49.94 352.886 50.765 352.886 51.815C352.886 52.865 352.616 53.9 352.076 54.92C351.566 55.94 350.861 56.45 349.961 56.45C348.341 56.45 347.036 56.015 346.046 55.145C345.596 54.785 345.251 54.35 345.011 53.84C343.631 55.58 341.486 56.45 338.576 56.45C336.386 56.45 334.541 55.67 333.041 54.11C331.541 52.55 330.791 50.705 330.791 48.575C330.791 43.685 333.716 41.24 339.566 41.24H342.041V40.79C342.041 40.01 341.906 39.515 341.636 39.305C341.396 39.065 340.811 38.945 339.881 38.945C338.741 38.945 337.121 39.185 335.021 39.665ZM338.621 47.945C338.621 48.605 338.801 49.115 339.161 49.475C339.521 49.805 339.971 49.97 340.511 49.97C341.081 49.97 341.591 49.745 342.041 49.295V45.83H340.781C339.341 45.83 338.621 46.535 338.621 47.945ZM375.818 55.775C375.818 55.985 374.528 56.09 371.948 56.09C369.398 56.09 368.123 55.955 368.123 55.685V42.59C368.123 41.09 367.628 40.34 366.638 40.34C366.128 40.34 365.453 40.67 364.613 41.33V55.73C364.613 56.03 363.323 56.18 360.743 56.18C358.193 56.18 356.918 56.015 356.918 55.685V40.97H355.793C354.803 40.97 354.308 39.935 354.308 37.865C354.308 36.935 354.488 35.99 354.848 35.03C355.328 33.71 356.108 33.05 357.188 33.05C358.268 33.05 359.303 33.335 360.293 33.905C361.313 34.475 361.928 35.015 362.138 35.525C363.998 33.875 366.053 33.05 368.303 33.05C370.583 33.05 372.413 33.755 373.793 35.165C375.413 33.755 377.363 33.05 379.643 33.05C384.593 33.05 387.068 36.065 387.068 42.095V55.775C387.068 55.985 385.778 56.09 383.198 56.09C380.648 56.09 379.373 55.955 379.373 55.685V42.59C379.373 41.09 378.878 40.34 377.888 40.34C377.348 40.34 376.658 40.67 375.818 41.33V55.775ZM407.907 54.785C406.017 55.895 403.587 56.45 400.617 56.45C397.647 56.45 395.142 55.445 393.102 53.435C391.062 51.395 390.042 48.59 390.042 45.02C390.042 41.42 391.017 38.525 392.967 36.335C394.947 34.145 397.437 33.05 400.437 33.05C403.437 33.05 405.747 33.815 407.367 35.345C409.017 36.875 409.842 38.735 409.842 40.925C409.842 45.785 407.052 48.215 401.472 48.215H398.367C398.367 49.115 398.607 49.745 399.087 50.105C399.597 50.435 400.332 50.6 401.292 50.6C403.392 50.6 405.387 50.12 407.277 49.16C407.307 49.13 407.442 49.34 407.682 49.79C408.402 51.08 408.762 52.175 408.762 53.075C408.762 53.945 408.477 54.515 407.907 54.785ZM402.282 41.78C402.282 40.52 401.667 39.89 400.437 39.89C399.867 39.89 399.372 40.07 398.952 40.43C398.562 40.76 398.367 41.255 398.367 41.915V43.31H400.797C401.787 43.31 402.282 42.8 402.282 41.78ZM420.972 55.64C420.972 55.91 419.442 56.045 416.382 56.045C413.982 56.015 412.782 55.895 412.782 55.685V25.04C412.782 24.59 414.237 24.365 417.147 24.365C419.697 24.455 420.972 24.605 420.972 24.815V55.64ZM426.978 53.345C425.118 51.275 424.188 48.41 424.188 44.75C424.188 41.09 425.118 38.225 426.978 36.155C428.868 34.085 431.403 33.05 434.583 33.05C437.763 33.05 440.283 34.085 442.143 36.155C444.003 38.225 444.933 41.09 444.933 44.75C444.933 48.41 444.003 51.275 442.143 53.345C440.283 55.415 437.763 56.45 434.583 56.45C431.403 56.45 428.868 55.415 426.978 53.345ZM434.583 40.565C432.903 40.565 432.063 41.945 432.063 44.705C432.063 47.465 432.903 48.845 434.583 48.845C436.293 48.845 437.148 47.465 437.148 44.705C437.148 41.945 436.293 40.565 434.583 40.565Z" fill="#BD7312"/>
<path d="M459.01 49.1834V49.6834M467.01 49.1834V49.6834M463.01 40.1834C463.68 40.1834 464.36 40.2734 465.01 40.4434C466.79 38.4434 470.04 37.6034 471.43 38.1834C472.83 38.7634 471.01 45.1834 471.01 45.1834C471.58 46.2534 472.01 47.4234 472.01 48.6234C472.01 53.0834 467.98 56.1834 463.01 56.1834C458.04 56.1834 454.01 53.1834 454.01 48.6234C454.01 47.3734 454.51 46.2234 455.01 45.1834C455.01 45.1834 453.12 38.7634 454.51 38.1834C455.9 37.6034 459.23 38.4134 461.01 40.4134C461.666 40.2625 462.337 40.1853 463.01 40.1834ZM462.26 51.4334H463.76L463.01 52.1834L462.26 51.4334Z" stroke="#BD7312" stroke-width="2" stroke-linecap="round" stroke-linejoin="round"/>
<path d="M260 42C260.7 41.3 261.69 42 262.5 42C263.163 42 263.799 41.7366 264.268 41.2678C264.737 40.7989 265 40.163 265 39.5C265 38.837 264.737 38.2011 264.268 37.7322C263.799 37.2634 263.163 37 262.5 37C262.367 37 262.24 36.9473 262.146 36.8536C262.053 36.7598 262 36.6326 262 36.5C262 35.837 261.737 35.2011 261.268 34.7322C260.799 34.2634 260.163 34 259.5 34C258.837 34 258.201 34.2634 257.732 34.7322C257.263 35.2011 257 35.837 257 36.5C257 37.31 257.7 38.3 257 39L250 46C249.3 46.7 248.31 46 247.5 46C246.837 46 246.201 46.2634 245.732 46.7322C245.263 47.2011 245 47.837 245 48.5C245 49.163 245.263 49.7989 245.732 50.2678C246.201 50.7366 246.837 51 247.5 51C247.78 51 248 51.22 248 51.5C248 52.163 248.263 52.7989 248.732 53.2678C249.201 53.7366 249.837 54 250.5 54C251.163 54 251.799 53.7366 252.268 53.2678C252.737 52.7989 253 52.163 253 51.5C253 50.69 252.3 49.7 253 49L260 42Z" stroke="#BD7312" stroke-width="2" stroke-linecap="round" stroke-linejoin="round"/>
<path d="M157 38C158.105 38 159 37.1046 159 36C159 34.8954 158.105 34 157 34C155.895 34 155 34.8954 155 36C155 37.1046 155.895 38 157 38Z" stroke="#BD7312" stroke-width="2" stroke-linecap="round" stroke-linejoin="round"/>
<path d="M164 42C165.105 42 166 41.1046 166 40C166 38.8954 165.105 38 164 38C162.895 38 162 38.8954 162 40C162 41.1046 162.895 42 164 42Z" stroke="#BD7312" stroke-width="2" stroke-linecap="round" stroke-linejoin="round"/>
<path d="M166 50C167.105 50 168 49.1046 168 48C168 46.8954 167.105 46 166 46C164.895 46 164 46.8954 164 48C164 49.1046 164.895 50 166 50Z" stroke="#BD7312" stroke-width="2" stroke-linecap="round" stroke-linejoin="round"/>
<path d="M155 42C155.657 42 156.307 42.1293 156.913 42.3806C157.52 42.6319 158.071 43.0002 158.536 43.4645C159 43.9288 159.368 44.48 159.619 45.0866C159.871 45.6932 160 46.3434 160 47V50.5C160 51.3365 159.7 52.1452 159.155 52.7796C158.61 53.4141 157.855 53.8324 157.029 53.9587C156.202 54.085 155.357 53.9111 154.647 53.4683C153.938 53.0255 153.41 52.3432 153.16 51.545C152.733 50.1683 151.833 49.2667 150.46 48.84C149.662 48.5901 148.98 48.0629 148.537 47.3538C148.095 46.6446 147.92 45.8004 148.046 44.9739C148.172 44.1473 148.589 43.3931 149.222 42.8476C149.856 42.3021 150.664 42.0015 151.5 42H155Z" stroke="#BD7312" stroke-width="2" stroke-linecap="round" stroke-linejoin="round"/>
<path d="M13.5068 49.0537V49.5537M1.92682 46.3007C1.64695 47.3814 1.50581 48.4933 1.50682 49.6097C1.50682 53.7817 5.08882 56.0537 9.50682 56.0537C13.9248 56.0537 17.5068 53.7817 17.5068 49.6097C17.5018 48.4888 17.3358 47.3744 17.0138 46.3007M5.50682 49.0537V49.5537M6.00682 43.5537C5.62282 44.6037 4.92382 45.5817 3.66282 46.0537C1.73182 46.7757 0.0868174 45.7567 0.00681744 45.0537C-0.106183 44.0597 1.18382 38.5237 4.00682 38.0537C5.92982 37.7327 7.65782 38.8987 7.65782 40.2887C8.92261 39.9675 10.2493 39.9819 11.5068 40.3307C11.5068 38.9407 13.3508 37.7327 15.2738 38.0537C18.0968 38.5237 19.3868 44.0597 19.2738 45.0537C19.1938 45.7567 17.5488 46.7757 15.6178 46.0537C14.3568 45.5817 13.7628 44.6037 13.3788 43.5537M8.75682 51.3037H10.2568L9.50682 52.0537L8.75682 51.3037Z" stroke="#BD7312" stroke-width="2" stroke-linecap="round" stroke-linejoin="round"/>
</svg>
